Coordinates
version=1
nRows=8
nColumns=63
inDegrees=yes

Units are S.I. units (second, meters, Newtons, ...)
If the header above contains a line with 'inDegrees', this indicates whether rotational values are in degrees (yes) or radians (no).

endheader
time	pelvis_tilt	pelvis_list	pelvis_rotation	pelvis_tx	pelvis_ty	pelvis_tz	hip_flexion_r	hip_adduction_r	hip_rotation_r	knee_angle_r	knee_angle_r_beta	ankle_angle_r	subtalar_angle_r	mtp_angle_r	hip_flexion_l	hip_adduction_l	hip_rotation_l	knee_angle_l	knee_angle_l_beta	ankle_angle_l	subtalar_angle_l	mtp_angle_l	L5_S1_Flex_Ext	L5_S1_Lat_Bending	L5_S1_axial_rotation	L4_L5_Flex_Ext	L4_L5_Lat_Bending	L4_L5_axial_rotation	L3_L4_Flex_Ext	L3_L4_Lat_Bending	L3_L4_axial_rotation	L2_L3_Flex_Ext	L2_L3_Lat_Bending	L2_L3_axial_rotation	L1_L2_Flex_Ext	L1_L2_Lat_Bending	L1_L2_axial_rotation	L1_T12_Flex_Ext	L1_T12_Lat_Bending	L1_T12_axial_rotation	Abs_r3	Abs_r2	Abs_r1	Abs_t1	Abs_t2	neck_flexion	neck_bending	neck_rotation	arm_flex_r	arm_add_r	arm_rot_r	elbow_flex_r	pro_sup_r	wrist_flex_r	wrist_dev_r	arm_flex_l	arm_add_l	arm_rot_l	elbow_flex_l	pro_sup_l	wrist_flex_l	wrist_dev_l
      0.03333333	      3.14771449	     -3.66763815	    174.02763866	      2.54642819	      0.89235497	      0.59439527	     12.20385660	     -5.49155100	     -4.80720564	     24.29874761	      0.42409315	     22.95276676	     -3.96523956	      0.00000000	      5.98096722	     -0.09169041	    -20.03757465	     17.42760916	      0.30416916	     17.35915281	      4.27701954	      0.00000000	     -0.00019281	     -0.53256206	      0.21463064	     -0.00035807	     -0.70830753	      0.22804506	     -0.00031677	     -1.29487138	      0.22804506	     -0.00022036	     -1.29487138	      0.18780181	     -0.00017905	     -1.08600054	      0.17438740	     -0.00011017	     -0.82493862	      0.16097298	     -0.00137724	     -6.02444849	      1.19371126	      0.00000000	      0.00000000	      0.00000000	      0.00000000	      0.00000001	     -5.73517190	     -8.45560434	     31.20944113	     21.86212827	     65.04268329	      0.00000000	      4.34955559	    -14.40460560	      2.75288689	    -41.11565557	     28.10761667	     51.09487963	      0.00000000	      4.34955559
      0.06666667	      3.80391506	     -3.45860792	    172.93399135	      2.54617504	      0.89054757	      0.59595979	     13.54515185	     -5.73778983	     -6.56168927	     25.53803691	      0.44572283	     25.47399349	      0.25116000	      0.00000000	      5.99831034	      1.66873090	    -10.32045503	     14.98907520	      0.26160871	     15.84750313	    -12.23861842	      0.00000000	     -0.00142985	     -0.46459052	      0.24303290	     -0.00265538	     -0.61790539	      0.25822246	     -0.00234910	     -1.12960538	      0.25822246	     -0.00163418	     -1.12960538	      0.21265379	     -0.00132776	     -0.94739298	      0.19746423	     -0.00081702	     -0.71965071	      0.18227468	     -0.01021328	     -5.25554085	      1.35167610	      0.00000000	      0.00000000	      0.00000000	      0.00000000	      0.00000001	     -5.31888083	     -9.45113847	     32.43015860	     22.63229914	     64.32489135	      0.00000000	      4.48452764	    -15.37504941	      3.25445946	    -38.87713940	     28.87824626	     51.82543191	      0.00000000	      4.48452764
      0.10000000	      4.39027563	     -3.13174747	    172.29004917	      2.54588651	      0.88902552	      0.59682592	     14.50985756	     -5.61903461	     -7.68142364	     26.33687844	      0.45966524	     27.18477085	      2.65278823	      0.00000000	      6.19794210	      1.88926012	     -7.75335818	     13.94561564	      0.24339691	     16.20984666	    -17.38928671	      0.00000000	     -0.00205634	     -0.38908649	      0.26745162	     -0.00381882	     -0.51748504	      0.28416734	     -0.00337836	     -0.94602490	      0.28416734	     -0.00235019	     -0.94602490	      0.23402016	     -0.00190951	     -0.79342518	      0.21730444	     -0.00117499	     -0.60269498	      0.20058871	     -0.01468821	     -4.40142425	      1.48748565	      0.00000000	      0.00000000	      0.00000000	      0.00000000	      0.00000001	     -5.28397139	    -10.13618511	     32.17373656	     23.38412379	     63.86251722	      0.00000000	      4.54051601	    -15.92244326	      3.71280862	    -37.80643470	     29.34572868	     52.15477344	      0.00000000	      4.54051601
      0.13333333	      4.80706350	     -2.87000722	    171.85359276	      2.54578547	      0.88800789	      0.59707557	     15.15518486	     -5.36389335	     -8.06762544	     26.81226949	      0.46796238	     28.21714827	      3.64976063	      0.00000000	      6.39075694	      1.74211829	     -7.63219382	     13.41908801	      0.23420727	     17.18769073	    -18.17365012	      0.00000000	     -0.00233358	     -0.32382684	      0.32349196	     -0.00433368	     -0.43068969	      0.34371021	     -0.00383383	     -0.78735257	      0.34371021	     -0.00266704	     -0.78735257	      0.28305546	     -0.00216696	     -0.66034769	      0.26283722	     -0.00133341	     -0.50160777	      0.24261897	     -0.01666850	     -3.66319396	      1.79916522	      0.00000000	      0.00000000	      0.00000000	      0.00000000	      0.00000001	     -5.44533613	    -10.68267781	     31.79712123	     24.13660411	     63.67247696	      0.00000000	      4.55596776	    -16.12770179	      3.96171571	    -37.18998141	     29.50592201	     52.30251598	      0.00000000	      4.55596776
      0.16666667	      4.98930700	     -2.99730333	    171.62232220	      2.54576093	      0.88749159	      0.59694003	     15.46580578	     -5.62348634	     -8.82941985	     27.05863251	      0.47226223	     29.17079630	      5.20199654	      0.00000000	      6.37856176	      1.97981787	     -7.41418964	     12.90930495	      0.22530988	     17.40471251	    -18.31219100	      0.00000000	     -0.00171439	     -0.30966556	      0.38452280	     -0.00318380	     -0.41185519	      0.40855548	     -0.00281658	     -0.75292084	      0.40855548	     -0.00195938	     -0.75292084	      0.33645745	     -0.00159199	     -0.63147000	      0.31242478	     -0.00097961	     -0.47967195	      0.28839210	     -0.01224575	     -3.50299872	      2.13860047	      0.00000000	      0.00000000	      0.00000000	      0.00000000	      0.00000001	     -5.76081746	    -10.62939988	     30.23898619	     24.40598418	     62.02720424	      0.00000000	      4.62727203	    -16.19044609	      3.63963476	    -35.61277231	     29.22620268	     52.31832973	      0.00000000	      4.62727203
      0.20000000	      5.03472028	     -2.95952640	    171.72176525	      2.54576629	      0.88736534	      0.59691966	     15.29526655	     -5.78782150	    -10.04629535	     26.81035596	      0.46792899	     29.76871761	      6.83724209	      0.00000000	      6.46141489	      2.02669903	     -6.73948926	     12.96949393	      0.22636037	     17.32289698	    -18.32647632	      0.00000000	     -0.00226169	     -0.28024832	      0.41901470	     -0.00420018	     -0.37273027	      0.44520312	     -0.00371573	     -0.68139577	      0.44520312	     -0.00258488	     -0.68139577	      0.36663786	     -0.00210020	     -0.57148237	      0.34044944	     -0.00129233	     -0.43410465	      0.31426102	     -0.01615501	     -3.17022505	      2.33043404	      0.00000000	      0.00000000	      0.00000000	      0.00000000	      0.00000000	     -6.36303675	    -10.33274725	     26.98016069	     24.72725238	     60.91610791	      0.00000000	      4.71383640	    -16.14116541	      3.04667453	    -33.19961669	     28.68639033	     52.70053114	      0.00000000	      4.71383640
      0.23333333	      4.95427594	     -3.03983226	    171.65812596	      2.54583900	      0.88748701	      0.59636181	     15.07851333	     -5.73760796	     -9.71489566	     26.49768158	      0.46247179	     29.89397334	      6.56971881	      0.00000000	      6.38493589	      2.16386490	     -6.16328743	     12.95656602	      0.22613474	     16.93675613	    -18.26172862	      0.00000000	     -0.00216556	     -0.27671896	      0.47058931	     -0.00402166	     -0.36803621	      0.50000115	     -0.00355779	     -0.67281447	      0.50000115	     -0.00247502	     -0.67281447	      0.41176565	     -0.00201094	     -0.56428530	      0.38235382	     -0.00123740	     -0.42863767	      0.35294198	     -0.01546836	     -3.13030020	      2.61727658	      0.00000000	      0.00000000	      0.00000000	      0.00000000	      0.00000000	     -6.47427099	    -10.23666218	     26.60842093	     24.67238744	     60.51407636	      0.00000000	      4.73273485	    -15.93716512	      2.65894929	    -32.59937426	     28.12785477	     52.68705781	      0.00000000	      4.73273485
      0.26666667	      4.84181045	     -2.97125064	    171.71896811	      2.54565380	      0.88775654	      0.59579221	     14.75037170	     -5.59244595	     -9.56354334	     26.14818173	      0.45637186	     29.79654712	      6.30554269	      0.00000000	      6.25734165	      2.12630405	     -5.54198196	     12.96536136	      0.22628824	     16.50299208	    -18.22759840	      0.00000000	     -0.00265388	     -0.26555947	      0.48337312	     -0.00492852	     -0.35319410	      0.51358394	     -0.00436006	     -0.64568131	      0.51358394	     -0.00303312	     -0.64568131	      0.42295148	     -0.00246439	     -0.54152888	      0.39274066	     -0.00151643	     -0.41135163	      0.36252984	     -0.01895638	     -3.00406188	      2.68837628	      0.00000000	      0.00000000	      0.00000000	      0.00000000	      0.00000000	     -6.62262591	    -10.03134103	     25.63153072	     24.56843047	     60.44984256	      0.00000000	      4.72778044	    -15.90162575	      1.84372636	    -30.38163470	     27.44823266	     53.57570484	      0.00000000	      4.72778044
